<svg version="1.1" xmlns="http://www.w3.org/2000/svg" xmlns:xlink="http://www.w3.org/1999/xlink" width="24" height="24" viewBox="0,0,256,256"><g fill="none" fill-rule="nonzero" stroke="#999999" stroke-width="1.5" stroke-linecap="round" stroke-linejoin="round" stroke-miterlimit="10" stroke-dasharray="" stroke-dashoffset="0" font-family="none" font-weight="none" font-size="none" text-anchor="none" style="mix-blend-mode: normal"><g transform="scale(10.66667,10.66667)"><path d="M15.75,5.25c1.6569,0 3,1.34315 3,3M21.75,8.25c0,3.3137 -2.6863,6 -6,6c-0.3507,0 -0.6945,-0.0301 -1.0287,-0.0878c-0.563,-0.0973 -1.1593,0.0258 -1.5633,0.4298l-2.658,2.658h-2.25v2.25h-2.25v2.25h-3.75v-2.818c0,-0.5968 0.23705,-1.1691 0.65901,-1.591l6.49899,-6.499c0.40402,-0.404 0.52712,-1.00028 0.42985,-1.5633c-0.05775,-0.33424 -0.08785,-0.67796 -0.08785,-1.0287c0,-3.31371 2.6863,-6 6,-6c3.3137,0 6,2.68629 6,6z"></path></g></g></svg>